<?xml version="1.0" encoding="UTF-8"?>
<svg id="_レイヤー_2" data-name="レイヤー 2" xmlns="http://www.w3.org/2000/svg" viewBox="0 0 94.98 67.94">
  <defs>
    <style>
      .cls-1 {
        fill: #231815;
      }

      .cls-1, .cls-2 {
        stroke-width: 0px;
      }

      .cls-3 {
        stroke: #231815;
        stroke-miterlimit: 10;
        stroke-width: 10px;
      }

      .cls-3, .cls-2 {
        fill: #fff;
      }
    </style>
  </defs>
  <g id="_レイヤー_1-2" data-name="レイヤー 1">
    <g>
      <path class="cls-1" d="M66.21,5.15c-3.99-2.99-15.4-5.15-28.87-5.15C25.78,0,15.73,1.59,10.59,3.94,4.37,6.52,0,12.65,0,19.8v15.48c0,18.04,16.67,32.66,37.22,32.66s37.22-14.62,37.22-32.66v-15.48c0-6.21-3.3-11.63-8.24-14.65Z"/>
      <circle class="cls-3" cx="74.45" cy="33.97" r="15.54"/>
      <ellipse class="cls-2" cx="36.66" cy="10.3" rx="25.19" ry="6.85"/>
      <path class="cls-2" d="M45.74,46.65c-.22-.78-.3-1.97-.3-2.96v-4.07c0-2.51-.38-3.61-1.24-4.58-.84-.89-1.78-1.24-3.37-1.24-1.97,0-3.45,1.02-4.1,2.43-.19-.46-.43-.84-.75-1.19-.81-.89-1.78-1.24-3.34-1.24s-2.38.14-3.38.71c-.72.42-1.21,1.07-1.56,1.56-.2.29-.35.46-.63,1.3-.35,1.1-.41,2.18-.41,2.99v6.53c0,.89.59,1.4,1.54,1.4s1.54-.54,1.54-1.4v-6.12c0-2.8.69-4.42,2.49-4.42.62,0,1.08.24,1.43.67.27.35.49,1,.49,2.96v6.9c0,.89.62,1.4,1.56,1.4s1.51-.54,1.51-1.4v-6.12c0-2.8,1.4-4.42,3.21-4.42.62,0,1.08.24,1.4.67.3.35.51,1,.51,3.02v3.91c0,1.35.05,2.48.3,3.37.19.65.62.97,1.4.97,1.02,0,1.72-.51,1.72-1.19,0-.11,0-.32-.03-.46Z"/>
    </g>
  </g>
</svg>